<svg width="32" height="32" viewBox="0 0 32 32" fill="none" xmlns="http://www.w3.org/2000/svg">
  <!-- Background circle -->
  <circle cx="16" cy="16" r="16" fill="url(#gradient1)"/>
  
  <!-- Bust silhouette -->
  <path d="M8 12C8 10.5 8.5 9 10 9C11.5 9 12 10.5 12 12V14C12 15.5 11.5 17 10 17C8.5 17 8 15.5 8 14V12Z" fill="#FFD700"/>
  
  <!-- Crown/Laurel -->
  <path d="M6 8L8 6L10 8L12 6L14 8L16 6L18 8L20 6L22 8L24 6L26 8V10C26 10.5 25.5 11 25 11H7C6.5 11 6 10.5 6 10V8Z" fill="#FFD700"/>
  
  <!-- Bar chart -->
  <rect x="18" y="18" width="2" height="4" fill="#FFD700"/>
  <rect x="21" y="16" width="2" height="6" fill="#FFD700"/>
  <rect x="24" y="14" width="2" height="8" fill="#FFD700"/>
  
  <!-- Arrow -->
  <path d="M18 22L24 16L22 14L18 18V22Z" fill="#FFD700"/>
  
  <defs>
    <linearGradient id="gradient1" x1="0" y1="0" x2="32" y2="32" gradientUnits="userSpaceOnUse">
      <stop stop-color="#1e40af"/>
      <stop offset="0.5" stop-color="#7c3aed"/>
      <stop offset="1" stop-color="#db2777"/>
    </linearGradient>
  </defs>
</svg>
